<svg width="104" height="20" viewBox="0 0 104 20" fill="none" xmlns="http://www.w3.org/2000/svg">
<path fill-rule="evenodd" clip-rule="evenodd" d="M100.532 13.98L98.4319 13.38L97.7717 13.2H97.7517V2.3L100.512 2.5L102.132 6.06L103.192 5.74L102.512 0.719999L99.6919 0.999999H93.2119L90.2717 0.719999L89.6118 5.74L90.6719 6.06L92.2917 2.5L95.0518 2.3V13.2L94.3518 13.38L92.2717 13.98L92.4319 15H100.372L100.532 13.98ZM12.4402 11.06L11.4202 10.78L9.56006 13.56C9.16016 13.7 8.73999 13.76 8.28003 13.76C5.47998 13.76 3.73999 11.66 3.73999 7.4C3.73999 3.78 5.18018 2.14 7.56006 2.14C8.14014 2.14 8.73999 2.22 9.28003 2.42L10.98 5.48L12 5.2L11.6001 0.799999L9.34009 0.96C8.92017 0.899999 8.32007 0.819999 7.62012 0.819999C3.46021 0.819999 0.840088 3.56 0.840088 8.18C0.840088 12.72 3.54004 15.2 7.16016 15.2C8.26001 15.2 8.84009 15.12 9.62012 15L11.52 15.22L12.4402 11.06ZM13.8618 2.02L15.7417 2.8V13.2L13.8618 13.98L14.0217 15H21.2219L24.1018 15.26L24.7617 10.26L23.7019 9.94L22.1018 13.44L18.4419 13.74V2.8L21.2019 2.02L21.0417 0.999999H14.0217L13.8618 2.02ZM27.9292 2.8L26.0493 2.02L26.2092 0.999999H32.3494L32.5293 2.02L30.6294 2.8V13.2L32.5293 13.98L32.3494 15H26.2092L26.0493 13.98L27.9292 13.2V2.8ZM46.7451 17.34C44.665 16.7 43.3052 16.06 42.0452 15.08C45.2651 14.52 47.145 11.84 47.145 7.92C47.145 3.36 44.625 0.819999 40.4851 0.819999C36.385 0.819999 33.9651 3.64 33.9651 8.1C33.9651 12.6 36.385 15.12 40.4451 15.2C41.6851 17.36 43.405 18.78 45.605 19.56L46.7451 17.34ZM36.885 7.7C36.885 4.1 38.0652 2.22 40.425 2.22C42.845 2.22 44.2251 4.3 44.2251 8.34C44.2251 11.94 43.0452 13.82 40.6851 13.82C38.2852 13.82 36.885 11.74 36.885 7.7ZM59.0303 2.72L57.3103 2.02L57.4702 0.999999H62.5303L62.7102 2.02L61.1702 2.7L60.9302 5.66V8.92C60.9502 13.36 59.0903 15.2 55.6104 15.2C51.7502 15.2 50.0103 13.6 50.0303 9.02V2.8L48.3503 2.02L48.5103 0.999999H55.3303L55.4902 2.02L52.7302 2.8V8.68C52.7302 12.66 53.7102 13.82 56.0303 13.82C58.1301 13.82 59.2703 12.6 59.2703 8.86V5.66L59.0303 2.72ZM76.209 13.98L74.709 13.24L70.3689 0.819999L67.729 0.999999L67.0891 4.06L63.6089 13.24L62.1289 13.98L62.2891 15H67.8491L68.009 13.98L65.509 13.28L65.729 12L66.1689 10.56L68.8291 10.5L71.1089 10.54L71.8889 13.22L70.009 13.98L70.1689 15H76.0491L76.209 13.98ZM68.8291 9.28L66.5691 9.24L68.749 2.88L70.729 9.24L68.8291 9.28ZM78.6909 2.8L76.811 2.02L76.9709 0.999999H82.011C82.311 0.999999 82.6111 0.999999 82.9111 1.02C86.3911 1.08 88.251 2.26 88.251 4.86C88.251 6.72 86.9509 8.12 85.071 8.7L88.2109 13.18L89.6311 13.98L89.4709 15H85.6311L84.811 12.82L84.491 12.08L82.6909 9.04H82.291C81.991 9.04 81.6909 9.02 81.3911 9V13.2L83.011 13.98L82.8311 15H76.9709L76.811 13.98L78.6909 13.2V2.8ZM85.511 4.82C85.511 3.2 84.6111 2.34 82.771 2.2L81.3911 2.44V7.78C81.731 7.8 82.0911 7.8 82.4509 7.8C84.1909 7.8 85.511 6.9 85.511 4.82ZM48.3743 17.32H100.369V19.5077H48.3743V17.32ZM40.449 17.32H0.805664V19.5077H40.449V17.32Z" fill="#442233"/>
</svg>
