<svg
  width="101"
  height="32"
  viewBox="0 0 101 32"
  fill="none"
  xmlns="http://www.w3.org/2000/svg"
>
  <path
    d="M7.16 23.2C3.1 23.2 0.7 20.24 0.7 15.54C0.7 10.74 3.54 7.2 7.72 7.2C9.44 7.2 10.76 7.6 11.64 8L11.28 12.66H10.54L9.76 8.62C9.16 8.26 8.48 8.14 7.9 8.14C5.42 8.14 4.34 10.96 4.34 15.18C4.34 19.58 5.62 21.74 7.98 21.74C9.34 21.74 10.38 21.06 11.44 18.9L12.14 19.24C10.94 22.22 9.54 23.2 7.16 23.2ZM22.0163 22.06L23.2363 17.42H24.0363V23H13.2363V22.2L14.7963 22.04V8.32L13.2363 8.2V7.4H20.2763V8.2L18.0563 8.34V22.06H22.0163ZM31.6838 7.4V8.16L30.1838 8.24V22.16L31.6838 22.24V23H25.4238V22.24L26.9238 22.16V8.24L25.4238 8.16V7.4H31.6838ZM46.4856 14.96C46.4856 19.54 44.0856 22.84 40.2856 23.18L40.1856 25.98L39.4256 26L39.3256 23.2C35.4056 23 32.9656 19.74 32.9656 15.44C32.9656 10.62 35.6256 7.2 39.8056 7.2C43.9256 7.2 46.4856 10.52 46.4856 14.96ZM40.5256 17.12L40.3256 22.18C41.9856 21.7 42.9256 19.2 42.9256 15.1C42.9256 10.6 41.7456 8.14 39.7256 8.14C37.7256 8.14 36.5456 10.72 36.5456 15.3C36.5456 19.46 37.5456 21.88 39.2856 22.22L39.0856 17.12H40.5256ZM60.587 7.4V8.2L59.147 8.32L58.987 18.58C58.947 21.12 57.907 23.2 54.407 23.2C50.927 23.2 49.067 21.82 49.067 18.5V8.3L47.667 8.2V7.4H54.087V8.2L52.327 8.32V18.34C52.327 20.88 53.247 22.04 55.227 22.04C57.107 22.04 58.047 20.84 58.047 18.6V16.4L57.927 8.36L56.047 8.2V7.4H60.587ZM68.0438 7.4L72.5838 22.14L73.7638 22.24V23H67.3638V22.24L69.1038 22.14L68.2438 19.24H63.5438L62.8438 22.12L64.6238 22.24V23H60.0438V22.24L61.2238 22.12L66.0038 7.4H68.0438ZM64.5038 15.36L63.7638 18.34H67.9838L65.7838 10.84L64.5038 15.36ZM87.2048 23.2L79.6048 17.7H79.3048V22.14L80.8648 22.24V23H74.6048V22.24L76.0448 22.16V8.26L74.5448 8.16V7.4H79.4648C84.1248 7.4 86.9848 9.04 86.9848 12.36C86.9848 15 85.4448 16.22 83.4848 16.78L87.7648 22.62L87.2048 23.2ZM79.4848 8.34H79.3048V16.76H79.5248C81.5848 16.76 83.3448 15.42 83.3448 12.4C83.3448 9.66 81.7448 8.34 79.4848 8.34ZM99.9494 7.4V12.7H99.1894L98.0094 8.34H95.4494V22.1L97.2494 22.2V23H90.3494V22.2L92.1694 22.1V8.34H89.6094L88.4294 12.7H87.6694V7.4H99.9494Z"
    fill="black"
  />
  <rect x="1.64746" y="25" width="37.0109" height="1" fill="black" />
  <rect x="40.9736" y="25" width="56.2815" height="1" fill="black" />
</svg>
